<?xml version="1.0" encoding="UTF-8" standalone="no"?>
<!DOCTYPE svg PUBLIC "-//W3C//DTD SVG 1.1//EN" "http://www.w3.org/Graphics/SVG/1.1/DTD/svg11.dtd">
<!-- 由 Microsoft Visio, SVG Export 生成 3.svg Page-1 -->
<svg xmlns="http://www.w3.org/2000/svg" xmlns:xlink="http://www.w3.org/1999/xlink" xmlns:ev="http://www.w3.org/2001/xml-events"
		xmlns:v="http://schemas.microsoft.com/visio/2003/SVGExtensions/" width="7.86599in" height="2.87088in"
		viewBox="0 0 566.351 206.703" xml:space="preserve" color-interpolation-filters="sRGB" class="st16">
	<v:documentProperties v:langID="2052" v:metric="true" v:viewMarkup="false">
		<v:userDefs>
			<v:ud v:nameU="msvSubprocessMaster" v:prompt="" v:val="VT4(Rectangle)"/>
			<v:ud v:nameU="msvNoAutoConnect" v:val="VT0(1):26"/>
			<v:ud v:nameU="msvConvertTheme"/>
		</v:userDefs>
	</v:documentProperties>

	<style type="text/css">
	<![CDATA[
		.st1 {visibility:visible}
		.st2 {fill:#626262;fill-opacity:0.5;stroke:#626262;stroke-linecap:round;stroke-linejoin:round;stroke-opacity:0.5}
		.st3 {fill:url(#grad0-7);stroke:#323232;stroke-linecap:round;stroke-linejoin:round;stroke-width:0.25}
		.st4 {fill:#000000;font-family:宋体;font-size:0.833336em}
		.st5 {font-size:1em}
		.st6 {marker-end:url(#mrkr5-42);stroke:#323232;stroke-linecap:round;stroke-linejoin:round;stroke-width:1}
		.st7 {fill:#323232;fill-opacity:1;stroke:#323232;stroke-opacity:1;stroke-width:0.28409090909091}
		.st8 {fill:none;stroke:none;stroke-linecap:round;stroke-linejoin:round;stroke-width:0.25}
		.st9 {fill:#000000;font-family:Times New Roman;font-size:0.666664em}
		.st10 {font-family:宋体;font-size:1em}
		.st11 {fill:#000000;font-family:宋体;font-size:0.666664em}
		.st12 {font-family:Calibri;font-size:1em}
		.st13 {fill:#ff0000;font-family:等线;font-size:0.833336em;font-weight:bold}
		.st14 {fill:#ffffff;stroke:none;stroke-linecap:butt;stroke-width:7.2}
		.st15 {fill:#ffffff;stroke:none;stroke-linecap:butt}
		.st16 {fill:none;fill-rule:evenodd;font-size:12px;overflow:visible;stroke-linecap:square;stroke-miterlimit:3}
	]]>
	</style>

	<defs id="Patterns_And_Gradients">
		<linearGradient id="grad0-7" x1="0" y1="0" x2="1" y2="0" gradientTransform="rotate(90 0.5 0.5)">
			<stop offset="0" stop-color="#fab067" stop-opacity="1"/>
			<stop offset="1" stop-color="#f89430" stop-opacity="1"/>
		</linearGradient>
	</defs>
	<defs id="Markers">
		<g id="lend5">
			<path d="M 2 1 L 0 0 L 1.98117 -0.993387 C 1.67173 -0.364515 1.67301 0.372641 1.98465 1.00043 " style="stroke:none"/>
		</g>
		<marker id="mrkr5-42" class="st7" v:arrowType="5" v:arrowSize="2" v:setback="6.16" refX="-6.16" orient="auto"
				markerUnits="strokeWidth" overflow="visible">
			<use xlink:href="#lend5" transform="scale(-3.52,-3.52) "/>
		</marker>
	</defs>
	<g v:mID="0" v:index="1" v:groupContext="foregroundPage">
		<v:userDefs>
			<v:ud v:nameU="msvThemeColors" v:val="VT0(13):26"/>
			<v:ud v:nameU="msvThemeEffects" v:val="VT0(2):26"/>
			<v:ud v:nameU="msvThemeOrder" v:val="VT0(0):26"/>
		</v:userDefs>
		<title>页-1</title>
		<v:pageProperties v:drawingScale="0.0393701" v:pageScale="0.0393701" v:drawingUnits="24" v:shadowOffsetX="8.50394"
				v:shadowOffsetY="-8.50394"/>
		<v:layer v:name="连接线" v:index="0"/>
		<g id="group35-1" transform="translate(18.1249,-20.675)" v:mID="35" v:groupContext="group">
			<v:userDefs>
				<v:ud v:nameU="msvThemeColors" v:val="VT0(13):26"/>
				<v:ud v:nameU="msvThemeEffects" v:val="VT0(2):26"/>
			</v:userDefs>
			<title>工作表.35</title>
			<g id="shape2-2" v:mID="2" v:groupContext="shape" transform="translate(-3.19744E-14,-26.587)">
				<title>圆角矩形.15</title>
				<desc>创建线程对象</desc>
				<v:userDefs>
					<v:ud v:nameU="CTypeTopLeftSnip" v:prompt="" v:val="VT0(0):5"/>
					<v:ud v:nameU="CTypeTopRightSnip" v:prompt="" v:val="VT0(0):5"/>
					<v:ud v:nameU="CTypeBotLeftSnip" v:prompt="" v:val="VT0(0):5"/>
					<v:ud v:nameU="CTypeBotRightSnip" v:prompt="" v:val="VT0(0):5"/>
					<v:ud v:nameU="CornerLockHoriz" v:prompt="" v:val="VT0(1):5"/>
					<v:ud v:nameU="CornerLockVert" v:prompt="" v:val="VT0(1):5"/>
					<v:ud v:nameU="CornerLockDiag" v:prompt="" v:val="VT0(0):5"/>
					<v:ud v:nameU="TopLeftOffset" v:prompt="" v:val="VT0(0.15748031496063):24"/>
					<v:ud v:nameU="TopRightOffset" v:prompt="" v:val="VT0(0.15748031496063):24"/>
					<v:ud v:nameU="BotLeftOffset" v:prompt="" v:val="VT0(0.15748031496063):24"/>
					<v:ud v:nameU="BotRightOffset" v:prompt="" v:val="VT0(0.15748031496063):24"/>
					<v:ud v:nameU="visVersion" v:prompt="" v:val="VT0(15):26"/>
					<v:ud v:nameU="TopLeftOffset" v:prompt="" v:val="VT0(0.11656250607778):1"/>
					<v:ud v:nameU="TopRightOffset" v:prompt="" v:val="VT0(0.11656250607778):1"/>
					<v:ud v:nameU="BotLeftOffset" v:prompt="" v:val="VT0(0.11656250607778):1"/>
					<v:ud v:nameU="BotRightOffset" v:prompt="" v:val="VT0(0.11656250607778):1"/>
					<v:ud v:nameU="msvThemeColors" v:val="VT0(13):26"/>
					<v:ud v:nameU="msvThemeEffects" v:val="VT0(2):26"/>
				</v:userDefs>
				<v:textBlock v:margins="rect(4,4,4,4)" v:tabSpace="42.5197"/>
				<v:textRect cx="41.9625" cy="188.234" width="83.93" height="36.9391"/>
				<g id="shadow2-3" v:groupContext="shadow" v:shadowOffsetX="1.44" v:shadowOffsetY="-1.44" v:shadowType="1"
						transform="matrix(1,0,0,1,1.44,1.44)" class="st1">
					<path d="M8.39 206.7 L75.53 206.7 A8.39236 8.39236 -180 0 0 83.93 198.31 L83.93 178.16 A8.39236 8.39236 -180
								 0 0 75.53 169.76 L8.39 169.76 A8.39236 8.39236 -180 0 0 0 178.16 L0 198.31 A8.39236 8.39236 -180
								 0 0 8.39 206.7 Z" class="st2"/>
				</g>
				<path d="M8.39 206.7 L75.53 206.7 A8.39236 8.39236 -180 0 0 83.93 198.31 L83.93 178.16 A8.39236 8.39236 -180 0 0
							 75.53 169.76 L8.39 169.76 A8.39236 8.39236 -180 0 0 0 178.16 L0 198.31 A8.39236 8.39236 -180 0 0 8.39
							 206.7 Z" class="st3"/>
				<text x="11.96" y="191.56" class="st4" v:langID="2052"><v:paragraph v:horizAlign="1"/><v:tabList/>创建线程对象</text>			</g>
			<g id="shape3-9" v:mID="3" v:groupContext="shape" transform="translate(135.469,-26.587)">
				<title>圆角矩形.3</title>
				<desc>有执行资格 没有执行权</desc>
				<v:userDefs>
					<v:ud v:nameU="CTypeTopLeftSnip" v:prompt="" v:val="VT0(0):5"/>
					<v:ud v:nameU="CTypeTopRightSnip" v:prompt="" v:val="VT0(0):5"/>
					<v:ud v:nameU="CTypeBotLeftSnip" v:prompt="" v:val="VT0(0):5"/>
					<v:ud v:nameU="CTypeBotRightSnip" v:prompt="" v:val="VT0(0):5"/>
					<v:ud v:nameU="CornerLockHoriz" v:prompt="" v:val="VT0(1):5"/>
					<v:ud v:nameU="CornerLockVert" v:prompt="" v:val="VT0(1):5"/>
					<v:ud v:nameU="CornerLockDiag" v:prompt="" v:val="VT0(0):5"/>
					<v:ud v:nameU="TopLeftOffset" v:prompt="" v:val="VT0(0.15748031496063):24"/>
					<v:ud v:nameU="TopRightOffset" v:prompt="" v:val="VT0(0.15748031496063):24"/>
					<v:ud v:nameU="BotLeftOffset" v:prompt="" v:val="VT0(0.15748031496063):24"/>
					<v:ud v:nameU="BotRightOffset" v:prompt="" v:val="VT0(0.15748031496063):24"/>
					<v:ud v:nameU="visVersion" v:prompt="" v:val="VT0(15):26"/>
					<v:ud v:nameU="TopLeftOffset" v:prompt="" v:val="VT0(0.11656250607778):1"/>
					<v:ud v:nameU="TopRightOffset" v:prompt="" v:val="VT0(0.11656250607778):1"/>
					<v:ud v:nameU="BotLeftOffset" v:prompt="" v:val="VT0(0.11656250607778):1"/>
					<v:ud v:nameU="BotRightOffset" v:prompt="" v:val="VT0(0.11656250607778):1"/>
					<v:ud v:nameU="msvThemeColors" v:val="VT0(13):26"/>
					<v:ud v:nameU="msvThemeEffects" v:val="VT0(2):26"/>
				</v:userDefs>
				<v:textBlock v:margins="rect(4,4,4,4)" v:tabSpace="42.5197"/>
				<v:textRect cx="41.9625" cy="188.234" width="83.93" height="36.9391"/>
				<g id="shadow3-10" v:groupContext="shadow" v:shadowOffsetX="1.44" v:shadowOffsetY="-1.44" v:shadowType="1"
						transform="matrix(1,0,0,1,1.44,1.44)" class="st1">
					<path d="M8.39 206.7 L75.53 206.7 A8.39236 8.39236 -180 0 0 83.93 198.31 L83.93 178.16 A8.39236 8.39236 -180
								 0 0 75.53 169.76 L8.39 169.76 A8.39236 8.39236 -180 0 0 0 178.16 L0 198.31 A8.39236 8.39236 -180
								 0 0 8.39 206.7 Z" class="st2"/>
				</g>
				<path d="M8.39 206.7 L75.53 206.7 A8.39236 8.39236 -180 0 0 83.93 198.31 L83.93 178.16 A8.39236 8.39236 -180 0 0
							 75.53 169.76 L8.39 169.76 A8.39236 8.39236 -180 0 0 0 178.16 L0 198.31 A8.39236 8.39236 -180 0 0 8.39
							 206.7 Z" class="st3"/>
				<text x="16.96" y="184.91" class="st4" v:langID="2052"><v:paragraph v:horizAlign="1"/><v:tabList/>有执行资格<v:newlineChar/><tspan
							x="16.96" dy="1.331em" class="st5">没有执行权</tspan></text>			</g>
			<g id="shape4-16" v:mID="4" v:groupContext="shape" transform="translate(307.284,-26.587)">
				<title>圆角矩形.4</title>
				<desc>有执行资格 有执行权</desc>
				<v:userDefs>
					<v:ud v:nameU="CTypeTopLeftSnip" v:prompt="" v:val="VT0(0):5"/>
					<v:ud v:nameU="CTypeTopRightSnip" v:prompt="" v:val="VT0(0):5"/>
					<v:ud v:nameU="CTypeBotLeftSnip" v:prompt="" v:val="VT0(0):5"/>
					<v:ud v:nameU="CTypeBotRightSnip" v:prompt="" v:val="VT0(0):5"/>
					<v:ud v:nameU="CornerLockHoriz" v:prompt="" v:val="VT0(1):5"/>
					<v:ud v:nameU="CornerLockVert" v:prompt="" v:val="VT0(1):5"/>
					<v:ud v:nameU="CornerLockDiag" v:prompt="" v:val="VT0(0):5"/>
					<v:ud v:nameU="TopLeftOffset" v:prompt="" v:val="VT0(0.15748031496063):24"/>
					<v:ud v:nameU="TopRightOffset" v:prompt="" v:val="VT0(0.15748031496063):24"/>
					<v:ud v:nameU="BotLeftOffset" v:prompt="" v:val="VT0(0.15748031496063):24"/>
					<v:ud v:nameU="BotRightOffset" v:prompt="" v:val="VT0(0.15748031496063):24"/>
					<v:ud v:nameU="visVersion" v:prompt="" v:val="VT0(15):26"/>
					<v:ud v:nameU="TopLeftOffset" v:prompt="" v:val="VT0(0.11656250607778):1"/>
					<v:ud v:nameU="TopRightOffset" v:prompt="" v:val="VT0(0.11656250607778):1"/>
					<v:ud v:nameU="BotLeftOffset" v:prompt="" v:val="VT0(0.11656250607778):1"/>
					<v:ud v:nameU="BotRightOffset" v:prompt="" v:val="VT0(0.11656250607778):1"/>
					<v:ud v:nameU="msvThemeColors" v:val="VT0(13):26"/>
					<v:ud v:nameU="msvThemeEffects" v:val="VT0(2):26"/>
				</v:userDefs>
				<v:textBlock v:margins="rect(4,4,4,4)" v:tabSpace="42.5197"/>
				<v:textRect cx="41.9625" cy="188.234" width="83.93" height="36.9391"/>
				<g id="shadow4-17" v:groupContext="shadow" v:shadowOffsetX="1.44" v:shadowOffsetY="-1.44" v:shadowType="1"
						transform="matrix(1,0,0,1,1.44,1.44)" class="st1">
					<path d="M8.39 206.7 L75.53 206.7 A8.39236 8.39236 -180 0 0 83.93 198.31 L83.93 178.16 A8.39236 8.39236 -180
								 0 0 75.53 169.76 L8.39 169.76 A8.39236 8.39236 -180 0 0 0 178.16 L0 198.31 A8.39236 8.39236 -180
								 0 0 8.39 206.7 Z" class="st2"/>
				</g>
				<path d="M8.39 206.7 L75.53 206.7 A8.39236 8.39236 -180 0 0 83.93 198.31 L83.93 178.16 A8.39236 8.39236 -180 0 0
							 75.53 169.76 L8.39 169.76 A8.39236 8.39236 -180 0 0 0 178.16 L0 198.31 A8.39236 8.39236 -180 0 0 8.39
							 206.7 Z" class="st3"/>
				<text x="16.96" y="184.91" class="st4" v:langID="2052"><v:paragraph v:horizAlign="1"/><v:tabList/>有执行资格<v:newlineChar/><tspan
							x="21.96" dy="1.331em" class="st5">有执行权</tspan></text>			</g>
			<g id="shape5-23" v:mID="5" v:groupContext="shape" transform="translate(444.736,-26.587)">
				<title>圆角矩形.5</title>
				<desc>线程死亡</desc>
				<v:userDefs>
					<v:ud v:nameU="CTypeTopLeftSnip" v:prompt="" v:val="VT0(0):5"/>
					<v:ud v:nameU="CTypeTopRightSnip" v:prompt="" v:val="VT0(0):5"/>
					<v:ud v:nameU="CTypeBotLeftSnip" v:prompt="" v:val="VT0(0):5"/>
					<v:ud v:nameU="CTypeBotRightSnip" v:prompt="" v:val="VT0(0):5"/>
					<v:ud v:nameU="CornerLockHoriz" v:prompt="" v:val="VT0(1):5"/>
					<v:ud v:nameU="CornerLockVert" v:prompt="" v:val="VT0(1):5"/>
					<v:ud v:nameU="CornerLockDiag" v:prompt="" v:val="VT0(0):5"/>
					<v:ud v:nameU="TopLeftOffset" v:prompt="" v:val="VT0(0.15748031496063):24"/>
					<v:ud v:nameU="TopRightOffset" v:prompt="" v:val="VT0(0.15748031496063):24"/>
					<v:ud v:nameU="BotLeftOffset" v:prompt="" v:val="VT0(0.15748031496063):24"/>
					<v:ud v:nameU="BotRightOffset" v:prompt="" v:val="VT0(0.15748031496063):24"/>
					<v:ud v:nameU="visVersion" v:prompt="" v:val="VT0(15):26"/>
					<v:ud v:nameU="TopLeftOffset" v:prompt="" v:val="VT0(0.11656250607778):1"/>
					<v:ud v:nameU="TopRightOffset" v:prompt="" v:val="VT0(0.11656250607778):1"/>
					<v:ud v:nameU="BotLeftOffset" v:prompt="" v:val="VT0(0.11656250607778):1"/>
					<v:ud v:nameU="BotRightOffset" v:prompt="" v:val="VT0(0.11656250607778):1"/>
					<v:ud v:nameU="msvThemeColors" v:val="VT0(13):26"/>
					<v:ud v:nameU="msvThemeEffects" v:val="VT0(2):26"/>
				</v:userDefs>
				<v:textBlock v:margins="rect(4,4,4,4)" v:tabSpace="42.5197"/>
				<v:textRect cx="41.9625" cy="188.234" width="83.93" height="36.9391"/>
				<g id="shadow5-24" v:groupContext="shadow" v:shadowOffsetX="1.44" v:shadowOffsetY="-1.44" v:shadowType="1"
						transform="matrix(1,0,0,1,1.44,1.44)" class="st1">
					<path d="M8.39 206.7 L75.53 206.7 A8.39236 8.39236 -180 0 0 83.93 198.31 L83.93 178.16 A8.39236 8.39236 -180
								 0 0 75.53 169.76 L8.39 169.76 A8.39236 8.39236 -180 0 0 0 178.16 L0 198.31 A8.39236 8.39236 -180
								 0 0 8.39 206.7 Z" class="st2"/>
				</g>
				<path d="M8.39 206.7 L75.53 206.7 A8.39236 8.39236 -180 0 0 83.93 198.31 L83.93 178.16 A8.39236 8.39236 -180 0 0
							 75.53 169.76 L8.39 169.76 A8.39236 8.39236 -180 0 0 0 178.16 L0 198.31 A8.39236 8.39236 -180 0 0 8.39
							 206.7 Z" class="st3"/>
				<text x="21.96" y="191.56" class="st4" v:langID="2052"><v:paragraph v:horizAlign="1"/><v:tabList/>线程死亡</text>			</g>
			<g id="shape6-29" v:mID="6" v:groupContext="shape" transform="translate(218.073,-130.964)">
				<title>圆角矩形.6</title>
				<desc>没有执行资格 没有执行权</desc>
				<v:userDefs>
					<v:ud v:nameU="CTypeTopLeftSnip" v:prompt="" v:val="VT0(0):5"/>
					<v:ud v:nameU="CTypeTopRightSnip" v:prompt="" v:val="VT0(0):5"/>
					<v:ud v:nameU="CTypeBotLeftSnip" v:prompt="" v:val="VT0(0):5"/>
					<v:ud v:nameU="CTypeBotRightSnip" v:prompt="" v:val="VT0(0):5"/>
					<v:ud v:nameU="CornerLockHoriz" v:prompt="" v:val="VT0(1):5"/>
					<v:ud v:nameU="CornerLockVert" v:prompt="" v:val="VT0(1):5"/>
					<v:ud v:nameU="CornerLockDiag" v:prompt="" v:val="VT0(0):5"/>
					<v:ud v:nameU="TopLeftOffset" v:prompt="" v:val="VT0(0.15748031496063):24"/>
					<v:ud v:nameU="TopRightOffset" v:prompt="" v:val="VT0(0.15748031496063):24"/>
					<v:ud v:nameU="BotLeftOffset" v:prompt="" v:val="VT0(0.15748031496063):24"/>
					<v:ud v:nameU="BotRightOffset" v:prompt="" v:val="VT0(0.15748031496063):24"/>
					<v:ud v:nameU="visVersion" v:prompt="" v:val="VT0(15):26"/>
					<v:ud v:nameU="TopLeftOffset" v:prompt="" v:val="VT0(0.11656250607778):1"/>
					<v:ud v:nameU="TopRightOffset" v:prompt="" v:val="VT0(0.11656250607778):1"/>
					<v:ud v:nameU="BotLeftOffset" v:prompt="" v:val="VT0(0.11656250607778):1"/>
					<v:ud v:nameU="BotRightOffset" v:prompt="" v:val="VT0(0.11656250607778):1"/>
					<v:ud v:nameU="msvThemeColors" v:val="VT0(13):26"/>
					<v:ud v:nameU="msvThemeEffects" v:val="VT0(2):26"/>
				</v:userDefs>
				<v:textBlock v:margins="rect(4,4,4,4)" v:tabSpace="42.5197"/>
				<v:textRect cx="41.9625" cy="188.234" width="83.93" height="36.9391"/>
				<g id="shadow6-30" v:groupContext="shadow" v:shadowOffsetX="1.44" v:shadowOffsetY="-1.44" v:shadowType="1"
						transform="matrix(1,0,0,1,1.44,1.44)" class="st1">
					<path d="M8.39 206.7 L75.53 206.7 A8.39236 8.39236 -180 0 0 83.93 198.31 L83.93 178.16 A8.39236 8.39236 -180
								 0 0 75.53 169.76 L8.39 169.76 A8.39236 8.39236 -180 0 0 0 178.16 L0 198.31 A8.39236 8.39236 -180
								 0 0 8.39 206.7 Z" class="st2"/>
				</g>
				<path d="M8.39 206.7 L75.53 206.7 A8.39236 8.39236 -180 0 0 83.93 198.31 L83.93 178.16 A8.39236 8.39236 -180 0 0
							 75.53 169.76 L8.39 169.76 A8.39236 8.39236 -180 0 0 0 178.16 L0 198.31 A8.39236 8.39236 -180 0 0 8.39
							 206.7 Z" class="st3"/>
				<text x="11.96" y="184.91" class="st4" v:langID="2052"><v:paragraph v:horizAlign="1"/><v:tabList/>没有执行资格<v:newlineChar/><tspan
							x="16.96" dy="1.331em" class="st5">没有执行权</tspan></text>			</g>
			<g id="shape7-36" v:mID="7" v:groupContext="shape" v:layerMember="0" transform="translate(83.925,-37.9699)">
				<title>动态连接线</title>
				<v:userDefs>
					<v:ud v:nameU="msvThemeColors" v:val="VT0(13):26"/>
					<v:ud v:nameU="msvThemeEffects" v:val="VT0(2):26"/>
				</v:userDefs>
				<path d="M0 199.62 L45.38 199.62" class="st6"/>
			</g>
			<g id="shape10-43" v:mID="10" v:groupContext="shape" transform="translate(92.2771,-44.8761)">
				<title>工作表.10</title>
				<desc>start()</desc>
				<v:userDefs>
					<v:ud v:nameU="msvThemeColors" v:val="VT0(13):26"/>
					<v:ud v:nameU="msvThemeEffects" v:val="VT0(2):26"/>
				</v:userDefs>
				<v:textBlock v:margins="rect(4,4,4,4)" v:tabSpace="42.5197"/>
				<v:textRect cx="17.4201" cy="197.378" width="34.85" height="18.65"/>
				<rect x="0" y="188.053" width="34.8403" height="18.65" class="st8"/>
				<text x="7.87" y="199.78" class="st9" v:langID="2052"><v:paragraph v:horizAlign="1"/><v:tabList/>start()</text>			</g>
			<g id="shape16-46" v:mID="16" v:groupContext="shape" v:layerMember="0" transform="translate(391.209,-37.9699)">
				<title>动态连接线.8</title>
				<v:userDefs>
					<v:ud v:nameU="msvThemeColors" v:val="VT0(13):26"/>
					<v:ud v:nameU="msvThemeEffects" v:val="VT0(2):26"/>
				</v:userDefs>
				<path d="M0 199.62 L47.37 199.62" class="st6"/>
			</g>
			<g id="shape17-52" v:mID="17" v:groupContext="shape" v:layerMember="0" transform="translate(221.377,-30.0067)">
				<title>动态连接线.17</title>
				<v:userDefs>
					<v:ud v:nameU="msvThemeColors" v:val="VT0(13):26"/>
					<v:ud v:nameU="msvThemeEffects" v:val="VT0(2):26"/>
				</v:userDefs>
				<path d="M0 199.62 L78.1 199.62" class="st6"/>
			</g>
			<g id="shape18-58" v:mID="18" v:groupContext="shape" v:layerMember="0" transform="translate(305.632,-44.8754)">
				<title>动态连接线.18</title>
				<v:userDefs>
					<v:ud v:nameU="msvThemeColors" v:val="VT0(13):26"/>
					<v:ud v:nameU="msvThemeEffects" v:val="VT0(2):26"/>
				</v:userDefs>
				<path d="M0 199.62 L-78.1 199.62" class="st6"/>
			</g>
			<g id="shape19-64" v:mID="19" v:groupContext="shape" transform="translate(389.888,-41.7527)">
				<title>工作表.19</title>
				<desc>run() 执行结束</desc>
				<v:userDefs>
					<v:ud v:nameU="msvThemeColors" v:val="VT0(13):26"/>
					<v:ud v:nameU="msvThemeEffects" v:val="VT0(2):26"/>
				</v:userDefs>
				<v:textBlock v:margins="rect(4,4,4,4)" v:tabSpace="42.5197"/>
				<v:textRect cx="26.4331" cy="188.234" width="52.87" height="36.9391"/>
				<rect x="0" y="169.764" width="52.8661" height="36.9391" class="st8"/>
				<text x="18.44" y="185.37" class="st9" v:langID="2052"><v:paragraph v:horizAlign="1"/><v:tabList/>run()<v:newlineChar/><tspan
							x="10.43" dy="1.287em" class="st10">执行结束</tspan></text>			</g>
			<g id="shape20-68" v:mID="20" v:groupContext="shape" transform="translate(224.681,-17.2685)">
				<title>工作表.20</title>
				<desc>抢到CPU执行权</desc>
				<v:userDefs>
					<v:ud v:nameU="msvThemeColors" v:val="VT0(13):26"/>
					<v:ud v:nameU="msvThemeEffects" v:val="VT0(2):26"/>
				</v:userDefs>
				<v:textBlock v:margins="rect(4,4,4,4)" v:tabSpace="42.5197"/>
				<v:textRect cx="36.767" cy="197.378" width="73.54" height="18.65"/>
				<rect x="0" y="188.053" width="73.534" height="18.65" class="st8"/>
				<text x="10" y="200.04" class="st11" v:langID="2052"><v:paragraph v:horizAlign="1"/><v:tabList/>抢到<tspan
							class="st12">CPU</tspan>执行权</text>			</g>
			<g id="shape22-72" v:mID="22" v:groupContext="shape" transform="translate(226.572,-57.5055)">
				<title>工作表.22</title>
				<desc>被其他线程抢走CPU执行权</desc>
				<v:userDefs>
					<v:ud v:nameU="msvThemeColors" v:val="VT0(13):26"/>
					<v:ud v:nameU="msvThemeEffects" v:val="VT0(2):26"/>
				</v:userDefs>
				<v:textBlock v:margins="rect(4,4,4,4)" v:tabSpace="42.5197"/>
				<v:textRect cx="36.767" cy="197.378" width="73.54" height="18.65"/>
				<rect x="0" y="188.053" width="73.534" height="18.65" class="st8"/>
				<text x="8.77" y="194.45" class="st11" v:langID="2052"><v:paragraph v:horizAlign="1"/><v:tabList/>被其他线程抢走<tspan
							x="18" dy="1.298em" class="st12">CPU</tspan>执行权</text>			</g>
			<g id="shape23-76" v:mID="23" v:groupContext="shape" transform="translate(24.5424,-5.70368)">
				<title>工作表.23</title>
				<desc>新建</desc>
				<v:userDefs>
					<v:ud v:nameU="msvThemeColors" v:val="VT0(13):26"/>
					<v:ud v:nameU="msvThemeEffects" v:val="VT0(2):26"/>
				</v:userDefs>
				<v:textBlock v:margins="rect(4,4,4,4)" v:tabSpace="42.5197"/>
				<v:textRect cx="17.4201" cy="197.378" width="34.85" height="18.65"/>
				<rect x="0" y="188.053" width="34.8403" height="18.65" class="st8"/>
				<text x="7.42" y="200.38" class="st13" v:langID="2052"><v:paragraph v:horizAlign="1"/><v:tabList/>新建</text>			</g>
			<g id="shape25-79" v:mID="25" v:groupContext="shape" transform="translate(119.557,0)">
				<title>工作表.25</title>
				<desc>就绪 不停抢占CPU</desc>
				<v:userDefs>
					<v:ud v:nameU="msvThemeColors" v:val="VT0(13):26"/>
					<v:ud v:nameU="msvThemeEffects" v:val="VT0(2):26"/>
				</v:userDefs>
				<v:textBlock v:margins="rect(4,4,4,4)" v:tabSpace="42.5197"/>
				<v:textRect cx="58.0243" cy="197.378" width="116.05" height="18.65"/>
				<rect x="0" y="188.053" width="116.049" height="18.65" class="st8"/>
				<text x="48.02" y="194.38" class="st13" v:langID="2052"><v:paragraph v:horizAlign="1"/><v:tabList/>就绪<v:newlineChar/><tspan
							x="18.48" dy="1.2em" class="st5">（</tspan>不停抢占CPU）</text>			</g>
			<g id="shape26-83" v:mID="26" v:groupContext="shape" transform="translate(322.814,-3.57435)">
				<title>工作表.26</title>
				<desc>运行</desc>
				<v:userDefs>
					<v:ud v:nameU="msvThemeColors" v:val="VT0(13):26"/>
					<v:ud v:nameU="msvThemeEffects" v:val="VT0(2):26"/>
				</v:userDefs>
				<v:textBlock v:margins="rect(4,4,4,4)" v:tabSpace="42.5197"/>
				<v:textRect cx="26.4331" cy="197.378" width="52.87" height="18.65"/>
				<rect x="0" y="188.053" width="52.8661" height="18.65" class="st8"/>
				<text x="16.43" y="200.38" class="st13" v:langID="2052"><v:paragraph v:horizAlign="1"/><v:tabList/>运行</text>			</g>
			<g id="shape27-86" v:mID="27" v:groupContext="shape" transform="translate(470.839,-4.63902)">
				<title>工作表.27</title>
				<desc>死亡</desc>
				<v:userDefs>
					<v:ud v:nameU="msvThemeColors" v:val="VT0(13):26"/>
					<v:ud v:nameU="msvThemeEffects" v:val="VT0(2):26"/>
				</v:userDefs>
				<v:textBlock v:margins="rect(4,4,4,4)" v:tabSpace="42.5197"/>
				<v:textRect cx="17.4201" cy="197.378" width="34.85" height="18.65"/>
				<rect x="0" y="188.053" width="34.8403" height="18.65" class="st8"/>
				<text x="7.42" y="200.38" class="st13" v:langID="2052"><v:paragraph v:horizAlign="1"/><v:tabList/>死亡</text>			</g>
			<g id="shape32-89" v:mID="32" v:groupContext="shape" v:layerMember="0" transform="translate(349.247,-63.5261)">
				<title>动态连接线.32</title>
				<desc>Sleep() 或其他阻塞式方法</desc>
				<v:userDefs>
					<v:ud v:nameU="msvThemeColors" v:val="VT0(13):26"/>
					<v:ud v:nameU="msvThemeEffects" v:val="VT0(2):26"/>
				</v:userDefs>
				<v:textBlock v:margins="rect(4,4,4,4)" v:tabSpace="42.5197"/>
				<v:textRect cx="0.850382" cy="165.402" width="73.82" height="28.2536"/>
				<path d="M0 206.7 L0 120.8 L-41.09 120.8" class="st6"/>
				<rect v:rectContext="textBkgnd" x="-31.1494" y="155.277" width="63.9998" height="20.25" class="st14"/>
				<text x="-10.7" y="162.48" class="st9" v:langID="2052"><v:paragraph v:horizAlign="1"/><v:tabList/>Sleep()<v:lf/><tspan
							x="-31.15" dy="1.298em" class="st10">或其他阻塞式方法</tspan></text>			</g>
			<g id="shape33-98" v:mID="33" v:groupContext="shape" v:layerMember="0" transform="translate(218.073,-149.434)">
				<title>动态连接线.33</title>
				<desc>Sleep()方法时间到 或其他阻塞方式结束</desc>
				<v:userDefs>
					<v:ud v:nameU="msvThemeColors" v:val="VT0(13):26"/>
					<v:ud v:nameU="msvThemeEffects" v:val="VT0(2):26"/>
				</v:userDefs>
				<v:textBlock v:margins="rect(4,4,4,4)" v:tabSpace="42.5197"/>
				<v:textRect cx="-39.7904" cy="251.31" width="81.82" height="29.3037"/>
				<path d="M0 206.7 L-40.64 206.7 L-40.64 286.45" class="st6"/>
				<rect v:rectContext="textBkgnd" x="-75.7902" y="240.66" width="71.9997" height="21.3003" class="st15"/>
				<text x="-71.34" y="248.65" class="st9" v:langID="2052"><v:paragraph v:horizAlign="1"/><v:tabList/>Sleep()<tspan
							class="st10">方法时间到<v:lf/></tspan><tspan x="-75.79" dy="1.331em" class="st10">或其他阻塞方式结束</tspan></text>			</g>
			<g id="shape34-108" v:mID="34" v:groupContext="shape" transform="translate(242.615,-110.959)">
				<title>工作表.34</title>
				<desc>阻塞</desc>
				<v:userDefs>
					<v:ud v:nameU="msvThemeColors" v:val="VT0(13):26"/>
					<v:ud v:nameU="msvThemeEffects" v:val="VT0(2):26"/>
				</v:userDefs>
				<v:textBlock v:margins="rect(4,4,4,4)" v:tabSpace="42.5197"/>
				<v:textRect cx="17.4201" cy="197.378" width="34.85" height="18.65"/>
				<rect x="0" y="188.053" width="34.8403" height="18.65" class="st8"/>
				<text x="7.42" y="200.38" class="st13" v:langID="2052"><v:paragraph v:horizAlign="1"/><v:tabList/>阻塞</text>			</g>
		</g>
	</g>
</svg>
